<svg
    version="1.1"
    id="Layer_1"
    xmlns="http://www.w3.org/2000/svg"
    x="0px"
    y="0px"
    width="200px"
    height="200px"
    viewBox="0 0 200 200"
    enableBackground="new 0 0 200 200"
    xmlSpace="preserve"
  >
    <path
      fill="#FFFFFF"
      d="M132.827,40.769c-14.573-15.204-37.322-19.004-55.623-9.36C58.055,41.513,48.187,61.951,52.52,82.877
      C53.2,86.161,56.502,94,57.393,95.753c3.75,7.345,9.253,13.231,16.323,17.582c21.555,13.265,43.092,26.532,64.643,39.8
      c2.326,1.437,4.683,2.822,7.415,4.474c0.032-0.733,0.056-1.021,0.065-1.312c-0.006-28.373,0.187-56.733-0.103-85.103
      C145.63,59.475,140.951,49.269,132.827,40.769 M118.352,102.507l-5.461-4.062l0.597,6.781c-14.896,6.785-32.571,1.917-41.889-11.47
      l4.31-5.793l-7.257,0.635c-6.967-15.005-2.038-32.886,11.557-42.213l6.179,4.596l-0.671-7.671
      c15.078-6.678,32.883-1.499,42.006,12.3l-4.348,5.849l7.187-0.627C137.076,75.789,131.952,93.389,118.352,102.507"
    />
    <path
      fill="#FFFFFF"
      d="M158.987,181.537l-8.335-5.014c-2.024-1.212-3.907-2.342-5.787-3.497l-32.898-20.26
      c-15.133-9.317-30.271-18.635-45.41-27.954c-9.188-5.651-16.271-13.291-21.066-22.707c-1.021-1.996-5.274-11.923-6.221-16.486
      c-5.578-26.914,6.902-53.094,31.713-66.187c23.491-12.38,52.923-7.432,71.579,12.023c10.89,11.386,16.48,24.596,16.62,39.261
      c0.247,24.319,0.202,49.045,0.159,72.951c-0.019,10.064-0.037,20.123-0.037,30.188c-0.004,0.293-0.014,0.48-0.028,0.722
      c-0.014,0.239-0.032,0.546-0.051,1.008L158.987,181.537z M73.04,26.333c-21.159,11.806-31.704,34.525-26.867,57.86
      c0.708,3.444,4.542,12.639,5.596,14.718c4.198,8.241,10.419,14.928,18.482,19.896c15.143,9.317,30.271,18.641,45.414,27.958
      l32.897,20.26c1.218,0.75,2.436,1.487,3.694,2.242c0.005-8.492,0.023-17.05,0.037-25.612c0.043-23.883,0.084-48.589-0.159-72.863
      c-0.121-12.825-5.055-24.417-14.662-34.462c-16.485-17.195-42.481-21.583-63.202-10.668C73.855,25.878,73.45,26.102,73.04,26.333"
    />
    <path
      fill="#FF9600"
      d="M87.658,83.784l29.356-3.223c0.478-0.046,0.881-0.375,1.003-0.844c0.118-0.462-0.059-0.949-0.455-1.22
      L93.049,62.077c-0.409-0.287-0.942-0.275-1.336,0.021l-0.245,0.259c-0.203,0.292-0.264,0.671-0.152,1.019l2.651,7.789l-10.377-2.568
      c-1.272-0.314-2.562,0.46-2.879,1.737l-0.093,0.383c-0.317,1.278,0.462,2.567,1.737,2.882l10.211,2.53l-0.014,0.051l-5.795,5.659
      c-0.35,0.354-0.429,0.863-0.231,1.299C86.723,83.574,87.178,83.833,87.658,83.784z"
    />
  </svg>